#!OML:ASF H:\BabyWalks\Project 1\Capture day 1\Session 1\baby.ASF
:FULLY-SPECIFIED
:DEGREES
347
root -14.3328 15.9718 -2.25626 103.539 -85.3757 -121.842
lowerback 12.9291 0.130315 0.781573
upperback 3.15128 0.178249 0.760942
thorax -3.93591 0.026222 0.328801
lowerneck -6.6173 -0.0893532 5.06153
upperneck 6.1354 -0.281561 -4.54093
head 3.16498 -0.194743 -2.41935
rclavicle 4.62174e-015 -1.39149e-014
rhumerus 20.7357 -5.2018 -64.9223
rradius 67.7267
rwrist 21.0054
rhand 23.284 -24.3537
rfingers 7.12502
rthumb 47.5812 -46.7596
lclavicle 4.62174e-015 -1.39149e-014
lhumerus 21.1863 0.398088 60.8173
lradius 73.6405
lwrist -6.37972
lhand 26.8597 32.6616
lfingers 7.12502
lthumb 50.8628 53.4192
rfemur 2.92023 -12.3293 11.2432
rtibia 54.0836
rfoot -32.092 -9.90162
rtoes -12.9191
lfemur 1.65174 11.8009 1.43705
ltibia 53.0258
lfoot -35.8827 -8.44739
ltoes -13.0498
348
root -14.328 15.9719 -2.24771 102.843 -85.5031 -121.109
lowerback 12.9454 0.0895586 0.773911
upperback 3.12736 0.122654 0.711257
thorax -3.96983 -0.000867081 0.290181
lowerneck -6.62124 -0.105299 5.06514
upperneck 6.1507 -0.302297 -4.55371
head 3.16997 -0.205461 -2.42566
rclavicle -1.98785e-016 2.0276e-014
rhumerus 20.7199 -5.14528 -64.9399
rradius 67.7389
rwrist 20.9692
rhand 23.2778 -24.3128
rfingers 7.12502
rthumb 47.5754 -46.7213
lclavicle -1.98785e-016 2.0276e-014
lhumerus 21.1781 0.340806 60.8221
lradius 73.6534
lwrist -6.40555
lhand 26.7608 32.7635
lfingers 7.12502
lthumb 50.7727 53.5709
rfemur 2.91285 -12.4745 11.042
rtibia 54.0793
rfoot -32.0896 -9.80236
rtoes -12.9523
lfemur 1.56875 11.7132 1.23033
ltibia 53.0286
lfoot -35.872 -8.35325
ltoes -13.1154
349
root -14.3247 15.9722 -2.24607 102.756 -85.5497 -121.009
lowerback 12.9699 0.0777771 0.725702
upperback 3.11089 0.10134 0.703218
thorax -4.00057 -0.010875 0.312476
lowerneck -6.68543 -0.114326 4.95274
upperneck 6.25502 -0.311814 -4.45186
head 3.21601 -0.209418 -2.37315
rclavicle -2.38542e-015 -3.18055e-015
rhumerus 20.7147 -5.08991 -64.9651
rradius 67.7535
rwrist 20.9337
rhand 23.2935 -24.3253
rfingers 7.12502
rthumb 47.5899 -46.7272
lclavicle -2.38542e-015 -3.18055e-015
lhumerus 21.1768 0.302364 60.8523
lradius 73.6171
lwrist -6.41807
lhand 26.6924 32.8089
lfingers 7.12502
lthumb 50.7102 53.6506
rfemur 2.89547 -12.5084 10.9777
rtibia 54.0755
rfoot -32.0656 -9.75731
rtoes -12.9265
lfemur 1.5287 11.6927 1.15481
ltibia 53.0317
lfoot -35.8595 -8.3143
ltoes -13.1607
350
root -14.3218 15.9733 -2.24452 102.628 -85.5778 -120.855
lowerback 12.9749 0.0745731 0.715729
upperback 3.10166 0.0957159 0.688629
thorax -4.01303 -0.0134298 0.303784
lowerneck -6.65349 -0.114971 4.95253
upperneck 6.24081 -0.312996 -4.43218
head 3.20473 -0.208991 -2.36575
rclavicle -6.41081e-015 1.11319e-014
rhumerus 20.7038 -5.09513 -64.9998
rradius 67.7542
rwrist 20.9353
rhand 23.2804 -24.2818
rfingers 7.12502
rthumb 47.5778 -46.6892
lclavicle -6.41081e-015 1.11319e-014
lhumerus 21.2069 0.256548 60.9
lradius 73.5884
lwrist -6.47695
lhand 26.6942 32.814
lfingers 7.12502
lthumb 50.7119 53.6547
rfemur 2.86211 -12.5415 10.9414
rtibia 54.0708
rfoot -32.0548 -9.7538
rtoes -12.9632
lfemur 1.48336 11.6812 1.10116
ltibia 53.0302
lfoot -35.8571 -8.28279
ltoes -13.1159
351
root -14.3189 15.9731 -2.24399 102.489 -85.5445 -120.732
lowerback 13.0228 0.0755039 0.743677
upperback 3.09529 0.101346 0.694501
thorax -4.04576 -0.0110433 0.293321
lowerneck -6.48676 -0.162301 5.07389
upperneck 6.0733 -0.374358 -4.56681
head 3.11366 -0.240551 -2.43173
rclavicle 1.73937e-015 3.97569e-015
rhumerus 20.6889 -5.07526 -65.0138
rradius 67.7435
rwrist 20.9158
rhand 23.2476 -24.2522
rfingers 7.12502
rthumb 47.5476 -46.6734
lclavicle 1.73937e-015 3.97569e-015
lhumerus 21.2154 0.188994 60.9115
lradius 73.5847
lwrist -6.46924
lhand 26.7143 32.8446
lfingers 7.12502
lthumb 50.7303 53.6753
rfemur 2.877 -12.5448 10.9746
rtibia 54.0647
rfoot -32.0681 -9.73442
rtoes -12.9175
lfemur 1.48594 11.6802 1.14107
ltibia 53.0375
lfoot -35.8415 -8.30947
ltoes -13.0343
352
root -14.3162 15.9739 -2.24354 102.448 -85.5249 -120.696
lowerback 13.0356 0.0731687 0.745655
upperback 3.10667 0.0983997 0.706152
thorax -4.04088 -0.0127817 0.304872
lowerneck -6.50508 -0.177087 5.03457
upperneck 6.08829 -0.394215 -4.52063
head 3.12056 -0.249736 -2.41007
rclavicle 1.09332e-015 -1.66979e-014
rhumerus 20.7116 -5.05566 -65.0392
rradius 67.7429
rwrist 20.8896
rhand 23.2389 -24.2785
rfingers 7.12502
rthumb 47.5396 -46.7033
lclavicle 1.09332e-015 -1.66979e-014
lhumerus 21.2505 0.162123 60.9544
lradius 73.5593
lwrist -6.5006
lhand 26.6863 32.874
lfingers 7.12502
lthumb 50.7047 53.7187
rfemur 2.87032 -12.5471 10.9933
rtibia 54.0585
rfoot -32.0363 -9.71582
rtoes -12.9206
lfemur 1.4792 11.6731 1.15447
ltibia 53.0364
lfoot -35.8454 -8.283
ltoes -13.0387
353
root -14.3127 15.9736 -2.24209 102.371 -85.5527 -120.608
lowerback 13.0558 0.0665289 0.718901
upperback 3.1015 0.086129 0.699795
thorax -4.05737 -0.0186359 0.315366
lowerneck -6.44369 -0.194252 5.06238
upperneck 6.02714 -0.41455 -4.57514
head 3.08729 -0.260844 -2.43277
rclavicle -2.18663e-015 8.34896e-015
rhumerus 20.7413 -5.02167 -65.055
rradius 67.7213
rwrist 20.8462
rhand 23.2163 -24.2684
rfingers 7.12502
rthumb 47.5186 -46.7027
lclavicle -2.18663e-015 8.34896e-015
lhumerus 21.2493 0.12148 60.9669
lradius 73.5593
lwrist -6.4829
lhand 26.6377 32.9729
lfingers 7.12502
lthumb 50.6603 53.8419
rfemur 2.85579 -12.5754 10.9502
rtibia 54.0555
rfoot -32.0582 -9.6681
rtoes -12.8723
lfemur 1.44442 11.6561 1.10537
ltibia 53.0417
lfoot -35.8291 -8.28661
ltoes -12.9319
354
root -14.3091 15.9744 -2.24139 102.5 -85.5473 -120.741
lowerback 13.0984 0.0702931 0.712184
upperback 3.09558 0.0906698 0.700581
thorax -4.08691 -0.0164624 0.319327
lowerneck -6.45304 -0.208098 5.00763
upperneck 6.05705 -0.431933 -4.51688
head 3.09755 -0.268636 -2.40416
rclavicle -4.82053e-015 -1.39149e-014
rhumerus 20.75 -5.01398 -65.0881
rradius 67.7074
rwrist 20.811
rhand 23.2131 -24.2826
rfingers 7.12502
rthumb 47.5158 -46.7183
lclavicle -4.82053e-015 -1.39149e-014
lhumerus 21.2673 0.063823 60.9861
lradius 73.5401
lwrist -6.46009
lhand 26.5921 33.0055
lfingers 7.12502
lthumb 50.6187 53.8972
rfemur 2.84212 -12.5712 10.9521
rtibia 54.058
rfoot -32.0293 -9.66907
rtoes -12.9045
lfemur 1.44267 11.6615 1.10154
ltibia 53.0344
lfoot -35.8311 -8.28165
ltoes -12.9208
355
root -14.3057 15.975 -2.24129 102.607 -85.5192 -120.847
lowerback 13.1251 0.0731272 0.713146
upperback 3.08777 0.0951833 0.704628
thorax -4.10971 -0.0142661 0.322335
lowerneck -6.41478 -0.220966 4.98111
upperneck 6.05371 -0.449555 -4.45386
head 3.08744 -0.275314 -2.37793
rclavicle -6.95746e-016 1.98785e-015
rhumerus 20.7595 -4.99694 -65.1332
rradius 67.6829
rwrist 20.8052
rhand 23.2038 -24.3049
rfingers 7.12502
rthumb 47.5071 -46.7445
lclavicle -6.95746e-016 1.98785e-015
lhumerus 21.2728 0.00305486 60.9837
lradius 73.5098
lwrist -6.41417
lhand 26.5544 33.1195
lfingers 7.12502
lthumb 50.5843 54.0299
rfemur 2.81145 -12.5557 10.9887
rtibia 54.0589
rfoot -32.0197 -9.67152
rtoes -12.8877
lfemur 1.43149 11.6654 1.12414
ltibia 53.0302
lfoot -35.8085 -8.30216
ltoes -12.8523
356
root -14.3036 15.9749 -2.2395 102.857 -85.5782 -121.115
lowerback 13.1592 0.0761815 0.655543
upperback 3.09372 0.0905194 0.686463
thorax -4.12221 -0.0163066 0.336683
lowerneck -6.42309 -0.225711 4.88669
upperneck 6.07476 -0.454161 -4.353
head 3.09464 -0.276118 -2.32681
rclavicle -5.1684e-015 -1.03368e-014
rhumerus 20.7883 -4.98277 -65.1682
rradius 67.6502
rwrist 20.7814
rhand 23.2059 -24.3352
rfingers 7.12502
rthumb 47.509 -46.7738
lclavicle -5.1684e-015 -1.03368e-014
lhumerus 21.2723 -0.0373883 60.9989
lradius 73.5015
lwrist -6.39622
lhand 26.5238 33.1474
lfingers 7.12502
lthumb 50.5563 54.073
rfemur 2.83308 -12.5693 10.8898
rtibia 54.0607
rfoot -32.038 -9.62427
rtoes -12.8925
lfemur 1.4506 11.6529 1.03999
ltibia 53.0255
lfoot -35.8217 -8.25765
ltoes -12.8862
357
root -14.3004 15.9754 -2.23888 103.088 -85.5514 -121.346
lowerback 13.2063 0.0740742 0.670312
upperback 3.0726 0.0907239 0.683002
thorax -4.17004 -0.016257 0.324801
lowerneck -6.33327 -0.235329 4.92802
upperneck 6.03451 -0.465792 -4.3833
head 3.0635 -0.281395 -2.34329
rclavicle -7.95139e-016 3.97569e-016
rhumerus 20.7775 -4.95478 -65.2253
rradius 67.6366
rwrist 20.7878
rhand 23.191 -24.3224
rfingers 7.12502
rthumb 47.4953 -46.7673
lclavicle -7.95139e-016 3.97569e-016
lhumerus 21.2349 -0.0917425 60.9896
lradius 73.5007
lwrist -6.353
lhand 26.5829 33.1549
lfingers 7.12502
lthumb 50.6103 54.0512
rfemur 2.81042 -12.5463 10.9224
rtibia 54.0564
rfoot -32.0173 -9.62517
rtoes -12.8417
lfemur 1.44363 11.6656 1.06242
ltibia 53.0337
lfoot -35.8079 -8.29167
ltoes -12.8017
358
root -14.296 15.9756 -2.23892 103.337 -85.4328 -121.589
lowerback 13.2568 0.0803267 0.758709
upperback 3.05451 0.112998 0.707515
thorax -4.2164 -0.00611104 0.296952
lowerneck -6.14565 -0.275545 5.14807
upperneck 5.87501 -0.520787 -4.58341
head 2.97294 -0.309596 -2.44903
rclavicle -9.93923e-016 2.74323e-014
rhumerus 20.77 -4.92675 -65.2483
rradius 67.6251
rwrist 20.7576
rhand 23.1601 -24.3324
rfingers 7.12502
rthumb 47.4668 -46.7902
lclavicle -9.93923e-016 2.74323e-014
lhumerus 21.2328 -0.160301 60.9847
lradius 73.4794
lwrist -6.3102
lhand 26.5334 33.194
lfingers 7.12502
lthumb 50.5651 54.1149
rfemur 2.76233 -12.496 11.0737
rtibia 54.0569
rfoot -32.0008 -9.65873
rtoes -12.9144
lfemur 1.43111 11.7212 1.2055
ltibia 53.0564
lfoot -35.8202 -8.32749
ltoes -12.8328
